<svg t="1733984159796" class="icon" viewBox="0 0 1024 1024" version="1.1" xmlns="http://www.w3.org/2000/svg" p-id="6273" width="200" height="200"><path d="M0 512C0 229.248 229.248 0 512 0s512 229.248 512 512-229.248 512-512 512S0 794.752 0 512z" fill="#FC7F2C" p-id="6274"></path><path d="M512 192c176.768 0 320 143.232 320 320S688.768 832 512 832 192 688.768 192 512s143.232-320 320-320z" fill="#FFFFFF" p-id="6275"></path><path d="M501.376 586.624c-23.552 0-42.624-19.072-42.624-42.624V373.376c0-23.552 19.072-42.624 42.624-42.624s42.624 19.072 42.624 42.624v128h85.376c23.552 0 42.624 19.072 42.624 42.624s-19.072 42.624-42.624 42.624h-128z" fill="#FC7F2C" p-id="6276"></path></svg>